<svg xmlns="http://www.w3.org/2000/svg" width="600px" height="300px" viewBox="0 0 600 300" xmlns:xlink="http://www.w3.org/1999/xlink">
<defs>
<style type="text/css">
<![CDATA[
.fil1 {fill:url(#id0)}
.fil2 {fill:url(#id1)}
]]>
</style>
<linearGradient id="id0" gradientUnits="userSpaceOnUse" x1="261.401" y1="150" x2="338.599" y2="150">
<stop offset="0" style="stop-opacity:0.498039; stop-color:white"/>
<stop offset="1" style="stop-opacity:0.34902; stop-color:white"/>
</linearGradient>
<linearGradient id="id1" gradientUnits="userSpaceOnUse" xlink:href="#id0" x1="310.887" y1="154.62" x2="289.113" y2="154.62">
</linearGradient>
</defs>
<metadata id="CorelCorpID_0Corel-Layer"/>
<rect fill="#323944" width="600" height="300"/>
<path class="fil1" d="M334 127l-15 0 -9 -8c-1,-1 -1,-1 -2,-1l-16 0c-1,0 -1,0 -2,1l-9 8 -15 0c-2,0 -5,2 -5,5l0 45c0,3 3,5 5,5l68 0c2,0 5,-2 5,-5l0 -45c0,-3 -3,-5 -5,-5zm-34 45c-10,0 -17,-8 -17,-17 0,-10 7,-18 17,-18 10,0 17,8 17,18 0,9 -7,17 -17,17z"/>
<path class="fil2" d="M311 155c0,6 -5,11 -11,11 -6,0 -11,-5 -11,-11 0,-6 5,-11 11,-11 6,0 11,5 11,11z"/>
</svg>